<?xml version="1.0" encoding="UTF-8" standalone="no"?>
<!DOCTYPE svg PUBLIC "-//W3C//DTD SVG 1.1//EN"
 "http://www.w3.org/Graphics/SVG/1.1/DTD/svg11.dtd">
<!-- Generated by graphviz version 2.30.1 (20130221.2233)
 -->
<!-- Title: sumSquare_t3 Pages: 1 -->
<svg width="656pt" height="541pt"
 viewBox="0.00 0.00 656.00 541.00" xmlns="http://www.w3.org/2000/svg" xmlns:xlink="http://www.w3.org/1999/xlink">
<g id="graph0" class="graph" transform="scale(1 1) rotate(0) translate(4 537)">
<title>sumSquare_t3</title>
<!-- c0 -->
<g id="node1" class="node"><title>c0</title>
<path fill="none" stroke="black" d="M12,-166.8C12,-166.8 42,-166.8 42,-166.8 48,-166.8 54,-172.8 54,-178.8 54,-178.8 54,-353.2 54,-353.2 54,-359.2 48,-365.2 42,-365.2 42,-365.2 12,-365.2 12,-365.2 6,-365.2 0,-359.2 0,-353.2 0,-353.2 0,-178.8 0,-178.8 0,-172.8 6,-166.8 12,-166.8"/>
<text text-anchor="middle" x="15.3311" y="-260.4" font-family="Times,serif" font-size="14.00">In</text>
<polyline fill="none" stroke="black" points="30.6621,-166.8 30.6621,-365.2 "/>
<text text-anchor="middle" x="41.9121" y="-347.2" font-family="Times,serif" font-size="14.00"> </text>
<polyline fill="none" stroke="black" points="30.6621,-340.4 53.1621,-340.4 "/>
<text text-anchor="middle" x="41.9121" y="-322.4" font-family="Times,serif" font-size="14.00"> </text>
<polyline fill="none" stroke="black" points="30.6621,-315.6 53.1621,-315.6 "/>
<text text-anchor="middle" x="41.9121" y="-297.6" font-family="Times,serif" font-size="14.00"> </text>
<polyline fill="none" stroke="black" points="30.6621,-290.8 53.1621,-290.8 "/>
<text text-anchor="middle" x="41.9121" y="-272.8" font-family="Times,serif" font-size="14.00"> </text>
<polyline fill="none" stroke="black" points="30.6621,-266 53.1621,-266 "/>
<text text-anchor="middle" x="41.9121" y="-248" font-family="Times,serif" font-size="14.00"> </text>
<polyline fill="none" stroke="black" points="30.6621,-241.2 53.1621,-241.2 "/>
<text text-anchor="middle" x="41.9121" y="-223.2" font-family="Times,serif" font-size="14.00"> </text>
<polyline fill="none" stroke="black" points="30.6621,-216.4 53.1621,-216.4 "/>
<text text-anchor="middle" x="41.9121" y="-198.4" font-family="Times,serif" font-size="14.00"> </text>
<polyline fill="none" stroke="black" points="30.6621,-191.6 53.1621,-191.6 "/>
<text text-anchor="middle" x="41.9121" y="-173.6" font-family="Times,serif" font-size="14.00"> </text>
</g>
<!-- c9 -->
<g id="node10" class="node"><title>c9</title>
<path fill="none" stroke="black" d="M112.61,-483.2C112.61,-483.2 165.39,-483.2 165.39,-483.2 171.39,-483.2 177.39,-489.2 177.39,-495.2 177.39,-495.2 177.39,-520.8 177.39,-520.8 177.39,-526.8 171.39,-532.8 165.39,-532.8 165.39,-532.8 112.61,-532.8 112.61,-532.8 106.61,-532.8 100.61,-526.8 100.61,-520.8 100.61,-520.8 100.61,-495.2 100.61,-495.2 100.61,-489.2 106.61,-483.2 112.61,-483.2"/>
<text text-anchor="middle" x="110.36" y="-514.8" font-family="Times,serif" font-size="14.00"> </text>
<polyline fill="none" stroke="black" points="100.61,-508 120.11,-508 "/>
<text text-anchor="middle" x="110.36" y="-490" font-family="Times,serif" font-size="14.00"> </text>
<polyline fill="none" stroke="black" points="120.11,-483.2 120.11,-532.8 "/>
<text text-anchor="middle" x="139" y="-502.4" font-family="Times,serif" font-size="14.00">mul</text>
<polyline fill="none" stroke="black" points="157.89,-483.2 157.89,-532.8 "/>
<text text-anchor="middle" x="167.64" y="-502.8" font-family="Times,serif" font-size="14.00"> </text>
</g>
<!-- c0&#45;&gt;c9 -->
<g id="edge16" class="edge"><title>c0:Out0&#45;&gt;c9:In0</title>
<path fill="none" stroke="black" d="M42,-366C42,-398.035 52.0346,-481.948 72,-507 78.0125,-514.544 82.6296,-517.906 89.6104,-519.238"/>
<polygon fill="black" stroke="black" points="89.7707,-522.759 100,-520 90.2829,-515.778 89.7707,-522.759"/>
<text text-anchor="middle" x="77" y="-518" font-family="Times,serif" font-size="10.00">32</text>
</g>
<!-- c0&#45;&gt;c9 -->
<g id="edge17" class="edge"><title>c0:Out0&#45;&gt;c9:In1</title>
<path fill="none" stroke="black" d="M42,-366C42,-394.297 63.0979,-475.993 90.1914,-492.911"/>
<polygon fill="black" stroke="black" points="89.4104,-496.335 100,-496 91.5131,-489.658 89.4104,-496.335"/>
<text text-anchor="middle" x="77" y="-488" font-family="Times,serif" font-size="10.00">32</text>
</g>
<!-- c10 -->
<g id="node11" class="node"><title>c10</title>
<path fill="none" stroke="black" d="M112.61,-414.2C112.61,-414.2 165.39,-414.2 165.39,-414.2 171.39,-414.2 177.39,-420.2 177.39,-426.2 177.39,-426.2 177.39,-451.8 177.39,-451.8 177.39,-457.8 171.39,-463.8 165.39,-463.8 165.39,-463.8 112.61,-463.8 112.61,-463.8 106.61,-463.8 100.61,-457.8 100.61,-451.8 100.61,-451.8 100.61,-426.2 100.61,-426.2 100.61,-420.2 106.61,-414.2 112.61,-414.2"/>
<text text-anchor="middle" x="110.36" y="-445.8" font-family="Times,serif" font-size="14.00"> </text>
<polyline fill="none" stroke="black" points="100.61,-439 120.11,-439 "/>
<text text-anchor="middle" x="110.36" y="-421" font-family="Times,serif" font-size="14.00"> </text>
<polyline fill="none" stroke="black" points="120.11,-414.2 120.11,-463.8 "/>
<text text-anchor="middle" x="139" y="-433.4" font-family="Times,serif" font-size="14.00">mul</text>
<polyline fill="none" stroke="black" points="157.89,-414.2 157.89,-463.8 "/>
<text text-anchor="middle" x="167.64" y="-433.8" font-family="Times,serif" font-size="14.00"> </text>
</g>
<!-- c0&#45;&gt;c10 -->
<g id="edge18" class="edge"><title>c0:Out1&#45;&gt;c10:In0</title>
<path fill="none" stroke="black" d="M54,-328C78.5503,-328 57.4293,-417.241 72,-437 77.9351,-445.048 82.6157,-448.76 89.9452,-450.211"/>
<polygon fill="black" stroke="black" points="89.7567,-453.706 100,-451 90.3046,-446.728 89.7567,-453.706"/>
<text text-anchor="middle" x="77" y="-450" font-family="Times,serif" font-size="10.00">32</text>
</g>
<!-- c0&#45;&gt;c10 -->
<g id="edge19" class="edge"><title>c0:Out1&#45;&gt;c10:In1</title>
<path fill="none" stroke="black" d="M54,-328C84.4047,-328 57.8269,-367.101 72,-394 79.0749,-407.428 80.4422,-420.211 90.1539,-425.007"/>
<polygon fill="black" stroke="black" points="89.5043,-428.446 100,-427 90.8933,-421.585 89.5043,-428.446"/>
<text text-anchor="middle" x="77" y="-419" font-family="Times,serif" font-size="10.00">32</text>
</g>
<!-- c11 -->
<g id="node12" class="node"><title>c11</title>
<path fill="none" stroke="black" d="M112.61,-345.2C112.61,-345.2 165.39,-345.2 165.39,-345.2 171.39,-345.2 177.39,-351.2 177.39,-357.2 177.39,-357.2 177.39,-382.8 177.39,-382.8 177.39,-388.8 171.39,-394.8 165.39,-394.8 165.39,-394.8 112.61,-394.8 112.61,-394.8 106.61,-394.8 100.61,-388.8 100.61,-382.8 100.61,-382.8 100.61,-357.2 100.61,-357.2 100.61,-351.2 106.61,-345.2 112.61,-345.2"/>
<text text-anchor="middle" x="110.36" y="-376.8" font-family="Times,serif" font-size="14.00"> </text>
<polyline fill="none" stroke="black" points="100.61,-370 120.11,-370 "/>
<text text-anchor="middle" x="110.36" y="-352" font-family="Times,serif" font-size="14.00"> </text>
<polyline fill="none" stroke="black" points="120.11,-345.2 120.11,-394.8 "/>
<text text-anchor="middle" x="139" y="-364.4" font-family="Times,serif" font-size="14.00">mul</text>
<polyline fill="none" stroke="black" points="157.89,-345.2 157.89,-394.8 "/>
<text text-anchor="middle" x="167.64" y="-364.8" font-family="Times,serif" font-size="14.00"> </text>
</g>
<!-- c0&#45;&gt;c11 -->
<g id="edge20" class="edge"><title>c0:Out2&#45;&gt;c11:In0</title>
<path fill="none" stroke="black" d="M54,-303C83.548,-303 53.4991,-343.961 72,-367 78.3534,-374.912 82.7454,-379.199 89.9554,-380.985"/>
<polygon fill="black" stroke="black" points="89.6988,-384.477 100,-382 90.4024,-377.513 89.6988,-384.477"/>
<text text-anchor="middle" x="77" y="-380" font-family="Times,serif" font-size="10.00">32</text>
</g>
<!-- c0&#45;&gt;c11 -->
<g id="edge21" class="edge"><title>c0:Out2&#45;&gt;c11:In1</title>
<path fill="none" stroke="black" d="M54,-303C60.224,-303 79.9367,-336.569 92.062,-351.256"/>
<polygon fill="black" stroke="black" points="90.1129,-354.193 100,-358 94.6452,-348.858 90.1129,-354.193"/>
<text text-anchor="middle" x="77" y="-340" font-family="Times,serif" font-size="10.00">32</text>
</g>
<!-- c12 -->
<g id="node13" class="node"><title>c12</title>
<path fill="none" stroke="black" d="M112.61,-276.2C112.61,-276.2 165.39,-276.2 165.39,-276.2 171.39,-276.2 177.39,-282.2 177.39,-288.2 177.39,-288.2 177.39,-313.8 177.39,-313.8 177.39,-319.8 171.39,-325.8 165.39,-325.8 165.39,-325.8 112.61,-325.8 112.61,-325.8 106.61,-325.8 100.61,-319.8 100.61,-313.8 100.61,-313.8 100.61,-288.2 100.61,-288.2 100.61,-282.2 106.61,-276.2 112.61,-276.2"/>
<text text-anchor="middle" x="110.36" y="-307.8" font-family="Times,serif" font-size="14.00"> </text>
<polyline fill="none" stroke="black" points="100.61,-301 120.11,-301 "/>
<text text-anchor="middle" x="110.36" y="-283" font-family="Times,serif" font-size="14.00"> </text>
<polyline fill="none" stroke="black" points="120.11,-276.2 120.11,-325.8 "/>
<text text-anchor="middle" x="139" y="-295.4" font-family="Times,serif" font-size="14.00">mul</text>
<polyline fill="none" stroke="black" points="157.89,-276.2 157.89,-325.8 "/>
<text text-anchor="middle" x="167.64" y="-295.8" font-family="Times,serif" font-size="14.00"> </text>
</g>
<!-- c0&#45;&gt;c12 -->
<g id="edge22" class="edge"><title>c0:Out3&#45;&gt;c12:In0</title>
<path fill="none" stroke="black" d="M54,-278C65.6322,-278 62.852,-289.815 72,-297 79.9255,-303.225 83.4626,-308.606 89.8465,-311.253"/>
<polygon fill="black" stroke="black" points="89.5512,-314.753 100,-313 90.7385,-307.855 89.5512,-314.753"/>
<text text-anchor="middle" x="77" y="-308" font-family="Times,serif" font-size="10.00">32</text>
</g>
<!-- c0&#45;&gt;c12 -->
<g id="edge23" class="edge"><title>c0:Out3&#45;&gt;c12:In1</title>
<path fill="none" stroke="black" d="M54,-278C66.5708,-278 69.8401,-278.812 82,-282 85.8921,-283.02 88.2043,-284.622 90.4468,-286.036"/>
<polygon fill="black" stroke="black" points="89.412,-289.38 100,-289 91.4862,-282.694 89.412,-289.38"/>
<text text-anchor="middle" x="77" y="-284" font-family="Times,serif" font-size="10.00">32</text>
</g>
<!-- c13 -->
<g id="node14" class="node"><title>c13</title>
<path fill="none" stroke="black" d="M112.61,-207.2C112.61,-207.2 165.39,-207.2 165.39,-207.2 171.39,-207.2 177.39,-213.2 177.39,-219.2 177.39,-219.2 177.39,-244.8 177.39,-244.8 177.39,-250.8 171.39,-256.8 165.39,-256.8 165.39,-256.8 112.61,-256.8 112.61,-256.8 106.61,-256.8 100.61,-250.8 100.61,-244.8 100.61,-244.8 100.61,-219.2 100.61,-219.2 100.61,-213.2 106.61,-207.2 112.61,-207.2"/>
<text text-anchor="middle" x="110.36" y="-238.8" font-family="Times,serif" font-size="14.00"> </text>
<polyline fill="none" stroke="black" points="100.61,-232 120.11,-232 "/>
<text text-anchor="middle" x="110.36" y="-214" font-family="Times,serif" font-size="14.00"> </text>
<polyline fill="none" stroke="black" points="120.11,-207.2 120.11,-256.8 "/>
<text text-anchor="middle" x="139" y="-226.4" font-family="Times,serif" font-size="14.00">mul</text>
<polyline fill="none" stroke="black" points="157.89,-207.2 157.89,-256.8 "/>
<text text-anchor="middle" x="167.64" y="-226.8" font-family="Times,serif" font-size="14.00"> </text>
</g>
<!-- c0&#45;&gt;c13 -->
<g id="edge24" class="edge"><title>c0:Out4&#45;&gt;c13:In0</title>
<path fill="none" stroke="black" d="M54,-254C62.1952,-254 63.9933,-251.747 72,-250 80.3543,-248.177 84.377,-246.095 89.9774,-244.925"/>
<polygon fill="black" stroke="black" points="90.3641,-248.404 100,-244 89.7206,-241.434 90.3641,-248.404"/>
<text text-anchor="middle" x="77" y="-252" font-family="Times,serif" font-size="10.00">32</text>
</g>
<!-- c0&#45;&gt;c13 -->
<g id="edge25" class="edge"><title>c0:Out4&#45;&gt;c13:In1</title>
<path fill="none" stroke="black" d="M54,-254C66.6335,-254 61.9044,-239.595 72,-232 79.4383,-226.404 83.4839,-222.831 89.6856,-221.144"/>
<polygon fill="black" stroke="black" points="90.4467,-224.581 100,-220 89.6751,-217.624 90.4467,-224.581"/>
<text text-anchor="middle" x="77" y="-234" font-family="Times,serif" font-size="10.00">32</text>
</g>
<!-- c14 -->
<g id="node15" class="node"><title>c14</title>
<path fill="none" stroke="black" d="M112.61,-138.2C112.61,-138.2 165.39,-138.2 165.39,-138.2 171.39,-138.2 177.39,-144.2 177.39,-150.2 177.39,-150.2 177.39,-175.8 177.39,-175.8 177.39,-181.8 171.39,-187.8 165.39,-187.8 165.39,-187.8 112.61,-187.8 112.61,-187.8 106.61,-187.8 100.61,-181.8 100.61,-175.8 100.61,-175.8 100.61,-150.2 100.61,-150.2 100.61,-144.2 106.61,-138.2 112.61,-138.2"/>
<text text-anchor="middle" x="110.36" y="-169.8" font-family="Times,serif" font-size="14.00"> </text>
<polyline fill="none" stroke="black" points="100.61,-163 120.11,-163 "/>
<text text-anchor="middle" x="110.36" y="-145" font-family="Times,serif" font-size="14.00"> </text>
<polyline fill="none" stroke="black" points="120.11,-138.2 120.11,-187.8 "/>
<text text-anchor="middle" x="139" y="-157.4" font-family="Times,serif" font-size="14.00">mul</text>
<polyline fill="none" stroke="black" points="157.89,-138.2 157.89,-187.8 "/>
<text text-anchor="middle" x="167.64" y="-157.8" font-family="Times,serif" font-size="14.00"> </text>
</g>
<!-- c0&#45;&gt;c14 -->
<g id="edge26" class="edge"><title>c0:Out5&#45;&gt;c14:In0</title>
<path fill="none" stroke="black" d="M54,-229C57.0481,-229 80.5411,-196.697 92.8533,-182.06"/>
<polygon fill="black" stroke="black" points="95.3453,-184.518 100,-175 90.426,-179.538 95.3453,-184.518"/>
<text text-anchor="middle" x="77" y="-209" font-family="Times,serif" font-size="10.00">32</text>
</g>
<!-- c0&#45;&gt;c14 -->
<g id="edge27" class="edge"><title>c0:Out5&#45;&gt;c14:In1</title>
<path fill="none" stroke="black" d="M54,-229C76.3684,-229 60.3051,-201.068 72,-182 79.5076,-169.759 81.0455,-157.909 89.9469,-153.168"/>
<polygon fill="black" stroke="black" points="90.9625,-156.529 100,-151 89.4869,-149.687 90.9625,-156.529"/>
<text text-anchor="middle" x="77" y="-184" font-family="Times,serif" font-size="10.00">32</text>
</g>
<!-- c15 -->
<g id="node16" class="node"><title>c15</title>
<path fill="none" stroke="black" d="M112.61,-69.2C112.61,-69.2 165.39,-69.2 165.39,-69.2 171.39,-69.2 177.39,-75.2 177.39,-81.2 177.39,-81.2 177.39,-106.8 177.39,-106.8 177.39,-112.8 171.39,-118.8 165.39,-118.8 165.39,-118.8 112.61,-118.8 112.61,-118.8 106.61,-118.8 100.61,-112.8 100.61,-106.8 100.61,-106.8 100.61,-81.2 100.61,-81.2 100.61,-75.2 106.61,-69.2 112.61,-69.2"/>
<text text-anchor="middle" x="110.36" y="-100.8" font-family="Times,serif" font-size="14.00"> </text>
<polyline fill="none" stroke="black" points="100.61,-94 120.11,-94 "/>
<text text-anchor="middle" x="110.36" y="-76" font-family="Times,serif" font-size="14.00"> </text>
<polyline fill="none" stroke="black" points="120.11,-69.2 120.11,-118.8 "/>
<text text-anchor="middle" x="139" y="-88.4" font-family="Times,serif" font-size="14.00">mul</text>
<polyline fill="none" stroke="black" points="157.89,-69.2 157.89,-118.8 "/>
<text text-anchor="middle" x="167.64" y="-88.8" font-family="Times,serif" font-size="14.00"> </text>
</g>
<!-- c0&#45;&gt;c15 -->
<g id="edge28" class="edge"><title>c0:Out6&#45;&gt;c15:In0</title>
<path fill="none" stroke="black" d="M54,-204C80.9906,-204 60.1187,-170.235 72,-146 79.7615,-130.169 79.0692,-113.657 90.1764,-108.022"/>
<polygon fill="black" stroke="black" points="90.9108,-111.444 100,-106 89.4997,-104.588 90.9108,-111.444"/>
<text text-anchor="middle" x="77" y="-148" font-family="Times,serif" font-size="10.00">32</text>
</g>
<!-- c0&#45;&gt;c15 -->
<g id="edge29" class="edge"><title>c0:Out6&#45;&gt;c15:In1</title>
<path fill="none" stroke="black" d="M54,-204C77.0169,-204 59.7229,-121.469 72,-102 77.9905,-92.5002 82.0354,-86.1671 89.8184,-83.4729"/>
<polygon fill="black" stroke="black" points="90.6042,-86.8958 100,-82 89.6019,-79.9679 90.6042,-86.8958"/>
<text text-anchor="middle" x="77" y="-104" font-family="Times,serif" font-size="10.00">32</text>
</g>
<!-- c16 -->
<g id="node17" class="node"><title>c16</title>
<path fill="none" stroke="black" d="M112.61,-0.2C112.61,-0.2 165.39,-0.2 165.39,-0.2 171.39,-0.2 177.39,-6.2 177.39,-12.2 177.39,-12.2 177.39,-37.8 177.39,-37.8 177.39,-43.8 171.39,-49.8 165.39,-49.8 165.39,-49.8 112.61,-49.8 112.61,-49.8 106.61,-49.8 100.61,-43.8 100.61,-37.8 100.61,-37.8 100.61,-12.2 100.61,-12.2 100.61,-6.2 106.61,-0.2 112.61,-0.2"/>
<text text-anchor="middle" x="110.36" y="-31.8" font-family="Times,serif" font-size="14.00"> </text>
<polyline fill="none" stroke="black" points="100.61,-25 120.11,-25 "/>
<text text-anchor="middle" x="110.36" y="-7" font-family="Times,serif" font-size="14.00"> </text>
<polyline fill="none" stroke="black" points="120.11,-0.2 120.11,-49.8 "/>
<text text-anchor="middle" x="139" y="-19.4" font-family="Times,serif" font-size="14.00">mul</text>
<polyline fill="none" stroke="black" points="157.89,-0.2 157.89,-49.8 "/>
<text text-anchor="middle" x="167.64" y="-19.8" font-family="Times,serif" font-size="14.00"> </text>
</g>
<!-- c0&#45;&gt;c16 -->
<g id="edge30" class="edge"><title>c0:Out7&#45;&gt;c16:In0</title>
<path fill="none" stroke="black" d="M42,-166C42,-137.884 63.2602,-56.8453 90.2428,-40.0639"/>
<polygon fill="black" stroke="black" points="91.5079,-43.3352 100,-37 89.4107,-36.6567 91.5079,-43.3352"/>
<text text-anchor="middle" x="77" y="-64" font-family="Times,serif" font-size="10.00">32</text>
</g>
<!-- c0&#45;&gt;c16 -->
<g id="edge31" class="edge"><title>c0:Out7&#45;&gt;c16:In1</title>
<path fill="none" stroke="black" d="M42,-166C42,-135.485 54.8349,-57.2294 72,-32 78.2126,-22.8687 82.2904,-16.9022 89.9746,-14.3767"/>
<polygon fill="black" stroke="black" points="90.5692,-17.828 100,-13 89.6168,-10.8931 90.5692,-17.828"/>
<text text-anchor="middle" x="77" y="-34" font-family="Times,serif" font-size="10.00">32</text>
</g>
<!-- c1 -->
<g id="node2" class="node"><title>c1</title>
<path fill="none" stroke="black" d="M602.75,-260C602.75,-260 635.25,-260 635.25,-260 641.25,-260 647.25,-266 647.25,-272 647.25,-272 647.25,-284 647.25,-284 647.25,-290 641.25,-296 635.25,-296 635.25,-296 602.75,-296 602.75,-296 596.75,-296 590.75,-290 590.75,-284 590.75,-284 590.75,-272 590.75,-272 590.75,-266 596.75,-260 602.75,-260"/>
<text text-anchor="middle" x="600.5" y="-273" font-family="Times,serif" font-size="14.00"> </text>
<polyline fill="none" stroke="black" points="610.25,-260.2 610.25,-296 "/>
<text text-anchor="middle" x="628.75" y="-272.5" font-family="Times,serif" font-size="14.00">Out</text>
</g>
<!-- c2 -->
<g id="node3" class="node"><title>c2</title>
<path fill="none" stroke="black" d="M236.393,-426.2C236.393,-426.2 287.607,-426.2 287.607,-426.2 293.607,-426.2 299.607,-432.2 299.607,-438.2 299.607,-438.2 299.607,-463.8 299.607,-463.8 299.607,-469.8 293.607,-475.8 287.607,-475.8 287.607,-475.8 236.393,-475.8 236.393,-475.8 230.393,-475.8 224.393,-469.8 224.393,-463.8 224.393,-463.8 224.393,-438.2 224.393,-438.2 224.393,-432.2 230.393,-426.2 236.393,-426.2"/>
<text text-anchor="middle" x="234.143" y="-457.8" font-family="Times,serif" font-size="14.00"> </text>
<polyline fill="none" stroke="black" points="224.393,-451 243.893,-451 "/>
<text text-anchor="middle" x="234.143" y="-433" font-family="Times,serif" font-size="14.00"> </text>
<polyline fill="none" stroke="black" points="243.893,-426.2 243.893,-475.8 "/>
<text text-anchor="middle" x="262" y="-445.4" font-family="Times,serif" font-size="14.00">add</text>
<polyline fill="none" stroke="black" points="280.107,-426.2 280.107,-475.8 "/>
<text text-anchor="middle" x="289.857" y="-445.8" font-family="Times,serif" font-size="14.00"> </text>
</g>
<!-- c6 -->
<g id="node7" class="node"><title>c6</title>
<path fill="none" stroke="black" d="M358.393,-318.2C358.393,-318.2 409.607,-318.2 409.607,-318.2 415.607,-318.2 421.607,-324.2 421.607,-330.2 421.607,-330.2 421.607,-355.8 421.607,-355.8 421.607,-361.8 415.607,-367.8 409.607,-367.8 409.607,-367.8 358.393,-367.8 358.393,-367.8 352.393,-367.8 346.393,-361.8 346.393,-355.8 346.393,-355.8 346.393,-330.2 346.393,-330.2 346.393,-324.2 352.393,-318.2 358.393,-318.2"/>
<text text-anchor="middle" x="356.143" y="-349.8" font-family="Times,serif" font-size="14.00"> </text>
<polyline fill="none" stroke="black" points="346.393,-343 365.893,-343 "/>
<text text-anchor="middle" x="356.143" y="-325" font-family="Times,serif" font-size="14.00"> </text>
<polyline fill="none" stroke="black" points="365.893,-318.2 365.893,-367.8 "/>
<text text-anchor="middle" x="384" y="-337.4" font-family="Times,serif" font-size="14.00">add</text>
<polyline fill="none" stroke="black" points="402.107,-318.2 402.107,-367.8 "/>
<text text-anchor="middle" x="411.857" y="-337.8" font-family="Times,serif" font-size="14.00"> </text>
</g>
<!-- c2&#45;&gt;c6 -->
<g id="edge10" class="edge"><title>c2:Out0&#45;&gt;c6:In0</title>
<path fill="none" stroke="black" d="M290,-426C290,-391.178 343.275,-404.202 354.096,-379.099"/>
<polygon fill="black" stroke="black" points="357.587,-379.475 356,-369 350.708,-378.178 357.587,-379.475"/>
<text text-anchor="middle" x="323" y="-401" font-family="Times,serif" font-size="10.00">32</text>
</g>
<!-- c3 -->
<g id="node4" class="node"><title>c3</title>
<path fill="none" stroke="black" d="M236.393,-306.2C236.393,-306.2 287.607,-306.2 287.607,-306.2 293.607,-306.2 299.607,-312.2 299.607,-318.2 299.607,-318.2 299.607,-343.8 299.607,-343.8 299.607,-349.8 293.607,-355.8 287.607,-355.8 287.607,-355.8 236.393,-355.8 236.393,-355.8 230.393,-355.8 224.393,-349.8 224.393,-343.8 224.393,-343.8 224.393,-318.2 224.393,-318.2 224.393,-312.2 230.393,-306.2 236.393,-306.2"/>
<text text-anchor="middle" x="234.143" y="-337.8" font-family="Times,serif" font-size="14.00"> </text>
<polyline fill="none" stroke="black" points="224.393,-331 243.893,-331 "/>
<text text-anchor="middle" x="234.143" y="-313" font-family="Times,serif" font-size="14.00"> </text>
<polyline fill="none" stroke="black" points="243.893,-306.2 243.893,-355.8 "/>
<text text-anchor="middle" x="262" y="-325.4" font-family="Times,serif" font-size="14.00">add</text>
<polyline fill="none" stroke="black" points="280.107,-306.2 280.107,-355.8 "/>
<text text-anchor="middle" x="289.857" y="-325.8" font-family="Times,serif" font-size="14.00"> </text>
</g>
<!-- c3&#45;&gt;c6 -->
<g id="edge11" class="edge"><title>c3:Out0&#45;&gt;c6:In1</title>
<path fill="none" stroke="black" d="M300,-331C316.611,-331 323.1,-331 335.915,-331"/>
<polygon fill="black" stroke="black" points="336,-334.5 346,-331 336,-327.5 336,-334.5"/>
<text text-anchor="middle" x="323" y="-333" font-family="Times,serif" font-size="10.00">32</text>
</g>
<!-- c4 -->
<g id="node5" class="node"><title>c4</title>
<path fill="none" stroke="black" d="M236.393,-173.2C236.393,-173.2 287.607,-173.2 287.607,-173.2 293.607,-173.2 299.607,-179.2 299.607,-185.2 299.607,-185.2 299.607,-210.8 299.607,-210.8 299.607,-216.8 293.607,-222.8 287.607,-222.8 287.607,-222.8 236.393,-222.8 236.393,-222.8 230.393,-222.8 224.393,-216.8 224.393,-210.8 224.393,-210.8 224.393,-185.2 224.393,-185.2 224.393,-179.2 230.393,-173.2 236.393,-173.2"/>
<text text-anchor="middle" x="234.143" y="-204.8" font-family="Times,serif" font-size="14.00"> </text>
<polyline fill="none" stroke="black" points="224.393,-198 243.893,-198 "/>
<text text-anchor="middle" x="234.143" y="-180" font-family="Times,serif" font-size="14.00"> </text>
<polyline fill="none" stroke="black" points="243.893,-173.2 243.893,-222.8 "/>
<text text-anchor="middle" x="262" y="-192.4" font-family="Times,serif" font-size="14.00">add</text>
<polyline fill="none" stroke="black" points="280.107,-173.2 280.107,-222.8 "/>
<text text-anchor="middle" x="289.857" y="-192.8" font-family="Times,serif" font-size="14.00"> </text>
</g>
<!-- c8 -->
<g id="node9" class="node"><title>c8</title>
<path fill="none" stroke="black" d="M358.393,-161.2C358.393,-161.2 409.607,-161.2 409.607,-161.2 415.607,-161.2 421.607,-167.2 421.607,-173.2 421.607,-173.2 421.607,-198.8 421.607,-198.8 421.607,-204.8 415.607,-210.8 409.607,-210.8 409.607,-210.8 358.393,-210.8 358.393,-210.8 352.393,-210.8 346.393,-204.8 346.393,-198.8 346.393,-198.8 346.393,-173.2 346.393,-173.2 346.393,-167.2 352.393,-161.2 358.393,-161.2"/>
<text text-anchor="middle" x="356.143" y="-192.8" font-family="Times,serif" font-size="14.00"> </text>
<polyline fill="none" stroke="black" points="346.393,-186 365.893,-186 "/>
<text text-anchor="middle" x="356.143" y="-168" font-family="Times,serif" font-size="14.00"> </text>
<polyline fill="none" stroke="black" points="365.893,-161.2 365.893,-210.8 "/>
<text text-anchor="middle" x="384" y="-180.4" font-family="Times,serif" font-size="14.00">add</text>
<polyline fill="none" stroke="black" points="402.107,-161.2 402.107,-210.8 "/>
<text text-anchor="middle" x="411.857" y="-180.8" font-family="Times,serif" font-size="14.00"> </text>
</g>
<!-- c4&#45;&gt;c8 -->
<g id="edge14" class="edge"><title>c4:Out0&#45;&gt;c8:In0</title>
<path fill="none" stroke="black" d="M300,-198C316.611,-198 323.1,-198 335.915,-198"/>
<polygon fill="black" stroke="black" points="336,-201.5 346,-198 336,-194.5 336,-201.5"/>
<text text-anchor="middle" x="323" y="-200" font-family="Times,serif" font-size="10.00">32</text>
</g>
<!-- c5 -->
<g id="node6" class="node"><title>c5</title>
<path fill="none" stroke="black" d="M236.393,-57.2C236.393,-57.2 287.607,-57.2 287.607,-57.2 293.607,-57.2 299.607,-63.2 299.607,-69.2 299.607,-69.2 299.607,-94.8 299.607,-94.8 299.607,-100.8 293.607,-106.8 287.607,-106.8 287.607,-106.8 236.393,-106.8 236.393,-106.8 230.393,-106.8 224.393,-100.8 224.393,-94.8 224.393,-94.8 224.393,-69.2 224.393,-69.2 224.393,-63.2 230.393,-57.2 236.393,-57.2"/>
<text text-anchor="middle" x="234.143" y="-88.8" font-family="Times,serif" font-size="14.00"> </text>
<polyline fill="none" stroke="black" points="224.393,-82 243.893,-82 "/>
<text text-anchor="middle" x="234.143" y="-64" font-family="Times,serif" font-size="14.00"> </text>
<polyline fill="none" stroke="black" points="243.893,-57.2 243.893,-106.8 "/>
<text text-anchor="middle" x="262" y="-76.4" font-family="Times,serif" font-size="14.00">add</text>
<polyline fill="none" stroke="black" points="280.107,-57.2 280.107,-106.8 "/>
<text text-anchor="middle" x="289.857" y="-76.8" font-family="Times,serif" font-size="14.00"> </text>
</g>
<!-- c5&#45;&gt;c8 -->
<g id="edge15" class="edge"><title>c5:Out0&#45;&gt;c8:In1</title>
<path fill="none" stroke="black" d="M290,-108C290,-141.405 342.812,-126.774 353.952,-150.047"/>
<polygon fill="black" stroke="black" points="350.557,-150.91 356,-160 357.413,-149.5 350.557,-150.91"/>
<text text-anchor="middle" x="323" y="-137" font-family="Times,serif" font-size="10.00">32</text>
</g>
<!-- c7 -->
<g id="node8" class="node"><title>c7</title>
<path fill="none" stroke="black" d="M480.393,-254.2C480.393,-254.2 531.607,-254.2 531.607,-254.2 537.607,-254.2 543.607,-260.2 543.607,-266.2 543.607,-266.2 543.607,-291.8 543.607,-291.8 543.607,-297.8 537.607,-303.8 531.607,-303.8 531.607,-303.8 480.393,-303.8 480.393,-303.8 474.393,-303.8 468.393,-297.8 468.393,-291.8 468.393,-291.8 468.393,-266.2 468.393,-266.2 468.393,-260.2 474.393,-254.2 480.393,-254.2"/>
<text text-anchor="middle" x="478.143" y="-285.8" font-family="Times,serif" font-size="14.00"> </text>
<polyline fill="none" stroke="black" points="468.393,-279 487.893,-279 "/>
<text text-anchor="middle" x="478.143" y="-261" font-family="Times,serif" font-size="14.00"> </text>
<polyline fill="none" stroke="black" points="487.893,-254.2 487.893,-303.8 "/>
<text text-anchor="middle" x="506" y="-273.4" font-family="Times,serif" font-size="14.00">add</text>
<polyline fill="none" stroke="black" points="524.107,-254.2 524.107,-303.8 "/>
<text text-anchor="middle" x="533.857" y="-273.8" font-family="Times,serif" font-size="14.00"> </text>
</g>
<!-- c6&#45;&gt;c7 -->
<g id="edge12" class="edge"><title>c6:Out0&#45;&gt;c7:In0</title>
<path fill="none" stroke="black" d="M412,-318C412,-293.715 433.915,-291.262 457.981,-291.024"/>
<polygon fill="black" stroke="black" points="458.008,-294.524 468,-291 457.992,-287.524 458.008,-294.524"/>
<text text-anchor="middle" x="445" y="-294" font-family="Times,serif" font-size="10.00">32</text>
</g>
<!-- c7&#45;&gt;c1 -->
<g id="edge1" class="edge"><title>c7:Out0&#45;&gt;c1:In0</title>
<path fill="none" stroke="black" d="M544,-279C560.611,-279 567.1,-279 579.915,-279"/>
<polygon fill="black" stroke="black" points="580,-282.5 590,-279 580,-275.5 580,-282.5"/>
<text text-anchor="middle" x="567" y="-281" font-family="Times,serif" font-size="10.00">32</text>
</g>
<!-- c8&#45;&gt;c7 -->
<g id="edge13" class="edge"><title>c8:Out0&#45;&gt;c7:In1</title>
<path fill="none" stroke="black" d="M412,-212C412,-243.342 429.044,-262.762 457.805,-266.383"/>
<polygon fill="black" stroke="black" points="457.807,-269.89 468,-267 458.23,-262.902 457.807,-269.89"/>
<text text-anchor="middle" x="445" y="-267" font-family="Times,serif" font-size="10.00">32</text>
</g>
<!-- c9&#45;&gt;c2 -->
<g id="edge2" class="edge"><title>c9:Out0&#45;&gt;c2:In0</title>
<path fill="none" stroke="black" d="M178,-508C202.578,-508 197.763,-474.766 214.074,-465.419"/>
<polygon fill="black" stroke="black" points="215.113,-468.769 224,-463 213.456,-461.968 215.113,-468.769"/>
<text text-anchor="middle" x="201" y="-498" font-family="Times,serif" font-size="10.00">32</text>
</g>
<!-- c10&#45;&gt;c2 -->
<g id="edge3" class="edge"><title>c10:Out0&#45;&gt;c2:In1</title>
<path fill="none" stroke="black" d="M178,-439C194.611,-439 201.1,-439 213.915,-439"/>
<polygon fill="black" stroke="black" points="214,-442.5 224,-439 214,-435.5 214,-442.5"/>
<text text-anchor="middle" x="201" y="-441" font-family="Times,serif" font-size="10.00">32</text>
</g>
<!-- c11&#45;&gt;c3 -->
<g id="edge4" class="edge"><title>c11:Out0&#45;&gt;c3:In0</title>
<path fill="none" stroke="black" d="M178,-370C197.817,-370 200.081,-351.133 214.139,-344.942"/>
<polygon fill="black" stroke="black" points="214.865,-348.366 224,-343 213.512,-341.498 214.865,-348.366"/>
<text text-anchor="middle" x="201" y="-365" font-family="Times,serif" font-size="10.00">32</text>
</g>
<!-- c12&#45;&gt;c3 -->
<g id="edge5" class="edge"><title>c12:Out0&#45;&gt;c3:In1</title>
<path fill="none" stroke="black" d="M178,-301C196.009,-301 200.653,-313.112 213.859,-317.465"/>
<polygon fill="black" stroke="black" points="213.589,-320.964 224,-319 214.636,-314.043 213.589,-320.964"/>
<text text-anchor="middle" x="201" y="-316" font-family="Times,serif" font-size="10.00">32</text>
</g>
<!-- c13&#45;&gt;c4 -->
<g id="edge6" class="edge"><title>c13:Out0&#45;&gt;c4:In0</title>
<path fill="none" stroke="black" d="M178,-232C196.767,-232 200.456,-216.913 214.04,-211.726"/>
<polygon fill="black" stroke="black" points="214.745,-215.156 224,-210 213.549,-208.259 214.745,-215.156"/>
<text text-anchor="middle" x="201" y="-227" font-family="Times,serif" font-size="10.00">32</text>
</g>
<!-- c14&#45;&gt;c4 -->
<g id="edge7" class="edge"><title>c14:Out0&#45;&gt;c4:In1</title>
<path fill="none" stroke="black" d="M178,-163C196.929,-163 200.378,-178.773 213.985,-184.195"/>
<polygon fill="black" stroke="black" points="213.538,-187.671 224,-186 214.779,-180.782 213.538,-187.671"/>
<text text-anchor="middle" x="201" y="-182" font-family="Times,serif" font-size="10.00">32</text>
</g>
<!-- c15&#45;&gt;c5 -->
<g id="edge8" class="edge"><title>c15:Out0&#45;&gt;c5:In0</title>
<path fill="none" stroke="black" d="M178,-94C194.611,-94 201.1,-94 213.915,-94"/>
<polygon fill="black" stroke="black" points="214,-97.5001 224,-94 214,-90.5001 214,-97.5001"/>
<text text-anchor="middle" x="201" y="-96" font-family="Times,serif" font-size="10.00">32</text>
</g>
<!-- c16&#45;&gt;c5 -->
<g id="edge9" class="edge"><title>c16:Out0&#45;&gt;c5:In1</title>
<path fill="none" stroke="black" d="M178,-25C202.578,-25 197.763,-58.2336 214.074,-67.5806"/>
<polygon fill="black" stroke="black" points="213.456,-71.0322 224,-70 215.113,-64.2314 213.456,-71.0322"/>
<text text-anchor="middle" x="201" y="-60" font-family="Times,serif" font-size="10.00">32</text>
</g>
</g>
</svg>
